<svg xmlns="http://www.w3.org/2000/svg" xmlns:xlink="http://www.w3.org/1999/xlink" viewBox="0,0,256,256" width="128px" height="128px" fill-rule="nonzero"><defs><linearGradient x1="31.5" y1="7" x2="31.5" y2="58.712" gradientUnits="userSpaceOnUse" id="color-1"><stop offset="0" stop-color="#1a6dff"></stop><stop offset="1" stop-color="#c822ff"></stop></linearGradient><linearGradient x1="24" y1="11" x2="24" y2="23.84" gradientUnits="userSpaceOnUse" id="color-2"><stop offset="0" stop-color="#6dc7ff"></stop><stop offset="1" stop-color="#e6abff"></stop></linearGradient></defs><g fill="none" fill-rule="nonzero" stroke="none" stroke-width="1" stroke-linecap="butt" stroke-linejoin="miter" stroke-miterlimit="10" stroke-dasharray="" stroke-dashoffset="0" font-family="none" font-weight="none" font-size="none" text-anchor="none" style="mix-blend-mode: normal"><g transform="scale(4,4)"><path d="M49,11h-16v2h16c2.76,0 5,2.24 5,5v20h-29.19l6.19,-8.5v-22.5h-14v22.5l6.25,8.58l6.17,9.92h-2.8l-7.62,6.55v-6.55h-5c-2.76,0 -5,-2.24 -5,-5v-25c0,-2.76 2.24,-5 5,-5h1v-2h-1c-3.86,0 -7,3.14 -7,7v25c0,3.86 3.14,7 7,7h3v9l10.38,-9h21.62c3.86,0 7,-3.14 7,-7v-25c0,-3.86 -3.14,-7 -7,-7zM19,9h10v17.61l-5,-1.66l-5,1.66zM21.29,32l-2.29,-3.15v-0.13l5,-1.67l5,1.67v0.13l-2.29,3.15zM54,43c0,2.76 -2.24,5 -5,5h-17.22l-4.98,-8h27.2z" fill="url(#color-1)"></path><path d="M27,11v12.84l-2.37,-0.79l-0.63,-0.21l-0.63,0.21l-2.37,0.79v-12.84z" fill="url(#color-2)"></path></g></g></svg>